<svg width="92" height="109" viewBox="0 0 92 109" fill="none" xmlns="http://www.w3.org/2000/svg">
<path d="M80.8002 62.8758L80.4678 62.978L81.2959 65.6826L81.6284 65.5804L80.8002 62.8758Z" fill="#407BFF"/>
<path d="M77.5971 52.4416L77.2646 52.5438L79.728 60.591L80.0604 60.4888L77.5971 52.4416Z" fill="#407BFF"/>
<path d="M66.0192 18.7552H53.6429L27.8612 102.976C26.9988 105.798 29.1026 108.652 32.048 108.652H87.6141C90.5595 108.652 92.6634 105.798 91.8009 102.976L66.0192 18.7552Z" fill="#407BFF"/>
<path opacity="0.2" d="M66.0192 18.7547H59.8328L51.9912 108.651H87.6176C90.563 108.651 92.6669 105.798 91.8045 102.976L66.0192 18.7547Z" fill="#263238"/>
<path opacity="0.2" d="M66.0189 18.7547H63.1152L71.9653 108.651H87.6138C90.5592 108.651 92.6631 105.798 91.8007 102.976L66.0189 18.7547Z" fill="#263238"/>
<path opacity="0.2" d="M53.6473 18.7551H56.6275L35.3003 108.652H32.0524C29.107 108.652 27.0032 105.798 27.8656 102.976L53.6473 18.7551Z" fill="white"/>
<path d="M59.7354 15.4102C63.4493 15.4102 66.6973 17.9083 67.664 21.4969L71.6561 36.3705L70.5955 41.074L66.5338 37.2136L62.6843 46.0702L59.179 39.9138L54.8253 46.0702L52.9301 36.8373L48.9658 42.1018L48.0269 36.0255L51.7895 21.5631C52.7353 17.9361 56.0006 15.4102 59.7354 15.4102Z" fill="#407BFF"/>
<path opacity="0.7" d="M59.7354 15.4102C63.4493 15.4102 66.6973 17.9083 67.664 21.4969L71.6561 36.3705L70.5955 41.074L66.5338 37.2136L62.6843 46.0702L59.179 39.9138L54.8253 46.0702L52.9301 36.8373L48.9658 42.1018L48.0269 36.0255L51.7895 21.5631C52.7353 17.9361 56.0006 15.4102 59.7354 15.4102Z" fill="white"/>
<path d="M51.9912 109C51.8591 109 51.7339 108.923 51.6748 108.798L45.7805 95.9973C45.7179 95.8614 45.7492 95.7012 45.857 95.5966L68.7977 74.058L54.5437 46.227C54.5089 46.1608 54.4985 46.0842 54.5089 46.011L59.4955 16.2812C59.5268 16.0931 59.7077 15.9642 59.8954 15.9955C60.0832 16.0269 60.2119 16.208 60.1806 16.3962L55.2113 46.0145L69.5314 73.9778C69.601 74.1172 69.5732 74.2844 69.4584 74.3924L46.5108 95.9381L52.2972 108.509C52.3772 108.683 52.3007 108.892 52.1268 108.972C52.0886 108.993 52.0399 109 51.9912 109Z" fill="white"/>
<path d="M72.6718 74.9608C73.1207 73.0563 71.9436 71.1478 70.0428 70.6981C68.1419 70.2484 66.2371 71.4278 65.7883 73.3323C65.3394 75.2367 66.5165 77.1452 68.4174 77.5949C70.3182 78.0446 72.223 76.8652 72.6718 74.9608Z" fill="#407BFF"/>
<path d="M69.2285 78.026C67.0864 78.026 65.3442 76.2804 65.3442 74.1342C65.3442 71.988 67.0864 70.2425 69.2285 70.2425C71.3706 70.2425 73.1129 71.988 73.1129 74.1342C73.1129 76.2804 71.3706 78.026 69.2285 78.026ZM69.2285 70.9428C67.4724 70.9428 66.0397 72.3748 66.0397 74.1377C66.0397 75.8972 67.469 77.3327 69.2285 77.3327C70.9846 77.3327 72.4174 75.9007 72.4174 74.1377C72.4174 72.3748 70.9881 70.9428 69.2285 70.9428Z" fill="white"/>
<path d="M49.5929 96.4218C49.9058 94.4902 48.5965 92.6701 46.6685 92.3566C44.7405 92.0431 42.9239 93.3549 42.611 95.2866C42.2981 97.2182 43.6074 99.0383 45.5354 99.3518C47.4634 99.6653 49.28 98.3535 49.5929 96.4218Z" fill="#407BFF"/>
<path d="M46.0967 99.7427C43.9546 99.7427 42.2124 97.9971 42.2124 95.8509C42.2124 93.7047 43.9546 91.9592 46.0967 91.9592C48.2388 91.9592 49.981 93.7047 49.981 95.8509C49.981 97.9971 48.2388 99.7427 46.0967 99.7427ZM46.0967 92.6595C44.3406 92.6595 42.9079 94.0915 42.9079 95.8544C42.9079 97.6174 44.3371 99.0493 46.0967 99.0493C47.8528 99.0493 49.2855 97.6174 49.2855 95.8544C49.2855 94.0915 47.8563 92.6595 46.0967 92.6595Z" fill="white"/>
<path d="M54.8564 49.6132C56.8096 49.6132 58.3929 48.0268 58.3929 46.0698C58.3929 44.1129 56.8096 42.5265 54.8564 42.5265C52.9032 42.5265 51.3198 44.1129 51.3198 46.0698C51.3198 48.0268 52.9032 49.6132 54.8564 49.6132Z" fill="#407BFF"/>
<path d="M54.8565 49.9585C52.7144 49.9585 50.9722 48.213 50.9722 46.0668C50.9722 43.9206 52.7144 42.175 54.8565 42.175C56.9986 42.175 58.7408 43.9206 58.7408 46.0668C58.7408 48.213 56.9986 49.9585 54.8565 49.9585ZM54.8565 42.8754C53.1004 42.8754 51.6677 44.3073 51.6677 46.0703C51.6677 47.8297 53.0969 49.2652 54.8565 49.2652C56.6126 49.2652 58.0453 47.8332 58.0453 46.0703C58.0453 44.3073 56.6126 42.8754 54.8565 42.8754Z" fill="white"/>
<path d="M63.3351 16.9046C63.648 14.9729 62.3387 13.1529 60.4107 12.8394C58.4827 12.5259 56.6661 13.8377 56.3532 15.7693C56.0403 17.701 57.3496 19.5211 59.2776 19.8346C61.2056 20.1481 63.0222 18.8363 63.3351 16.9046Z" fill="#407BFF"/>
<path d="M59.8428 20.2286C57.7007 20.2286 55.9585 18.4831 55.9585 16.3369C55.9585 14.1907 57.7007 12.4451 59.8428 12.4451C61.9849 12.4451 63.7271 14.1907 63.7271 16.3369C63.7271 18.4831 61.9849 20.2286 59.8428 20.2286ZM59.8428 13.1454C58.0867 13.1454 56.654 14.5774 56.654 16.3404C56.654 18.0998 58.0832 19.5353 59.8428 19.5353C61.6024 19.5353 63.0316 18.1033 63.0316 16.3404C63.0316 14.5774 61.5989 13.1454 59.8428 13.1454Z" fill="white"/>
<path d="M59.8336 16.3578C59.6423 16.3578 59.4858 16.201 59.4858 16.0094V0.348409C59.4858 0.156784 59.6423 0 59.8336 0C60.0248 0 60.1813 0.156784 60.1813 0.348409V16.0059C60.1813 16.201 60.0248 16.3578 59.8336 16.3578Z" fill="#407BFF"/>
<path d="M45.8086 6.86371C48.9244 7.92984 52.0402 5.79757 55.1594 6.86371C55.1594 5.0903 55.1594 3.31341 55.1594 1.54001C52.0436 0.473871 48.9279 2.60614 45.8086 1.54001C45.8086 3.31341 45.8086 5.0903 45.8086 6.86371Z" fill="#407BFF"/>
<path opacity="0.2" d="M49.2236 1.73859V7.05881C51.2023 6.7975 53.181 6.18779 55.1597 6.8637V1.54C53.181 0.864086 51.2023 1.4738 49.2236 1.73859Z" fill="black"/>
<path d="M50.4824 5.67206C53.5982 6.73819 56.714 4.60592 59.8333 5.67206C59.8333 3.89865 59.8333 2.12176 59.8333 0.348355C56.7175 -0.717779 53.6017 1.41449 50.4824 0.348355C50.4824 2.12524 50.4824 3.89865 50.4824 5.67206Z" fill="#407BFF"/>
<path d="M13.5015 45.6763C13.7639 45.5952 14.0754 45.4846 14.3648 45.3863C14.6591 45.2831 14.9534 45.175 15.2453 45.0595C15.8265 44.8285 16.4029 44.5926 16.9572 44.3223C18.0633 43.7989 19.1302 43.1797 19.9003 42.4425C20.0965 42.2607 20.2559 42.0715 20.3933 41.8822L20.4423 41.811C20.4546 41.8061 20.5061 41.6857 20.408 41.9142C20.3516 42.0665 20.3467 42.2263 20.3565 42.3246C20.3589 42.3491 20.3639 42.3737 20.3688 42.3983L20.381 42.4499C20.3859 42.4671 20.3908 42.4818 20.3957 42.4966L20.4055 42.5261C20.4374 42.5998 20.4472 42.5949 20.4423 42.5801C20.4325 42.5605 20.4129 42.5285 20.3835 42.4892C20.2633 42.327 20.0524 42.1181 19.8341 41.924C19.6109 41.7274 19.3755 41.5259 19.1302 41.3293C18.1418 40.543 17.07 39.7714 16.0203 38.9974L16.658 37.8031C17.9284 38.297 19.14 38.8573 20.3393 39.5576C20.6385 39.7346 20.9402 39.9164 21.237 40.1277C21.5362 40.3415 21.8354 40.5578 22.1616 40.887C22.3235 41.0664 22.5025 41.2286 22.6914 41.6685L22.7233 41.7545L22.7551 41.8626C22.765 41.8994 22.7723 41.9314 22.7797 41.9756C22.787 42.0198 22.7944 42.0641 22.7993 42.1108C22.8189 42.2902 22.8042 42.5334 22.7208 42.7644C22.5933 43.0716 22.5957 43.0175 22.5638 43.0839L22.4829 43.2239C22.2597 43.5901 22.0096 43.9193 21.7398 44.2118C20.6557 45.3741 19.4147 46.126 18.1639 46.7772C17.5335 47.0942 16.8959 47.3817 16.2484 47.6323C15.9246 47.7576 15.5984 47.878 15.2698 47.9935C14.9362 48.1115 14.6199 48.2073 14.2495 48.313L13.5015 45.6763Z" fill="#7F3E3B"/>
<path d="M14.4967 37.3463L13.1919 38.2014L15.0608 38.629L15.539 37.3094L14.4967 37.3463Z" fill="#7F3E3B"/>
<path d="M17.1408 38.0022L15.5393 37.3068L15.061 38.6264C15.061 38.6264 16.3339 39.9631 17.1408 39.0711V38.0022Z" fill="#7F3E3B"/>
<path d="M7.60484 48.0231C7.0015 49.1166 6.3908 50.2494 5.80954 51.3699C5.23072 52.4905 4.65681 53.6233 4.18101 54.7487C4.05838 55.0313 3.94801 55.309 3.845 55.5867L3.80821 55.6776C3.81066 55.6678 3.80821 55.6579 3.80821 55.6506C3.80576 55.6334 3.80331 55.6284 3.7984 55.6309C3.7935 55.6383 3.78859 55.685 3.80331 55.7587C3.83274 55.9061 3.93084 56.1248 4.06574 56.3435C4.20063 56.5622 4.35759 56.7957 4.53909 57.0217C5.2626 57.9334 6.18478 58.8327 7.09225 59.6781L6.33684 60.8035C5.13016 60.1695 4.01913 59.4495 2.97187 58.4764C2.71435 58.2283 2.45438 57.9653 2.21402 57.6582C1.97367 57.3485 1.73821 57.007 1.55427 56.5426C1.46352 56.3116 1.38995 56.0388 1.36787 55.7218C1.35806 55.5621 1.36297 55.395 1.3924 55.2181C1.40466 55.1321 1.42674 55.0436 1.44881 54.9551L1.4905 54.8175C1.59106 54.4809 1.69407 54.1491 1.80934 53.8297C2.26307 52.5421 2.8051 51.3355 3.3741 50.1413C3.95537 48.952 4.56361 47.8019 5.24053 46.6495L7.60484 48.0231Z" fill="#7F3E3B"/>
<path d="M9.32459 40.1523C9.16517 41.8134 9.40062 43.4205 9.03027 44.8629C9.03027 44.8629 9.44231 46.2021 11.8925 46.2021C14.5854 46.2021 13.1286 44.8629 13.1286 44.8629C11.6448 44.5115 11.6398 43.418 11.8581 42.3933L9.32459 40.1523Z" fill="#7F3E3B"/>
<path d="M8.69399 45.3225C8.48552 44.8974 8.25252 44.4133 8.68663 44.261C9.16489 44.0939 11.8039 43.9219 12.731 44.2364C13.6556 44.5509 13.43 45.411 13.43 45.411L8.69399 45.3225Z" fill="#263238"/>
<path d="M3.44326 105.739C3.26423 105.703 3.08028 105.624 2.9552 105.563C2.93803 105.555 2.92822 105.538 2.92822 105.519C2.92822 105.499 2.94048 105.484 2.95765 105.477C3.03614 105.447 3.74003 105.2 3.92888 105.354C3.95831 105.379 3.99019 105.423 3.98038 105.499C3.96567 105.602 3.91662 105.676 3.83568 105.72C3.73267 105.776 3.59042 105.771 3.44326 105.739ZM3.0999 105.526C3.41383 105.661 3.66645 105.703 3.79153 105.636C3.84549 105.607 3.87738 105.558 3.88964 105.484C3.89454 105.447 3.88228 105.433 3.87247 105.425C3.77191 105.344 3.3844 105.435 3.0999 105.526Z" fill="#407BFF"/>
<path d="M2.96493 105.567C2.95512 105.565 2.94776 105.562 2.94285 105.555C2.93059 105.543 2.92569 105.525 2.93059 105.508C2.93795 105.486 3.10227 104.939 3.3647 104.804C3.43337 104.769 3.50204 104.762 3.57072 104.787C3.67618 104.823 3.6909 104.897 3.6909 104.936C3.68599 105.16 3.21019 105.501 2.98945 105.565C2.97964 105.567 2.97228 105.567 2.96493 105.567ZM3.51921 104.868C3.48243 104.86 3.44564 104.865 3.40639 104.885C3.23717 104.971 3.10718 105.282 3.05077 105.439C3.28131 105.331 3.59524 105.064 3.5977 104.931C3.5977 104.919 3.5977 104.892 3.54129 104.87C3.53148 104.87 3.52657 104.87 3.51921 104.868Z" fill="#407BFF"/>
<path d="M16.0816 107.027C15.9001 107.027 15.7039 106.99 15.5665 106.956C15.5494 106.951 15.5347 106.936 15.5322 106.919C15.5297 106.899 15.5371 106.882 15.5543 106.872C15.6254 106.828 16.2606 106.438 16.4789 106.549C16.5132 106.566 16.5549 106.603 16.5598 106.681C16.5672 106.787 16.5329 106.868 16.4642 106.926C16.3734 107 16.2312 107.027 16.0816 107.027ZM15.7014 106.89C16.035 106.956 16.2925 106.944 16.4004 106.855C16.447 106.816 16.4691 106.76 16.4642 106.686C16.4617 106.649 16.447 106.637 16.4348 106.632C16.3219 106.573 15.9614 106.74 15.7014 106.89Z" fill="#407BFF"/>
<path d="M15.5788 106.956C15.569 106.956 15.5617 106.954 15.5543 106.949C15.5396 106.939 15.5322 106.924 15.5322 106.907C15.5347 106.883 15.5813 106.315 15.8094 106.126C15.8682 106.077 15.9369 106.057 16.008 106.067C16.1184 106.082 16.1478 106.15 16.1552 106.19C16.1969 106.408 15.802 106.841 15.5984 106.952C15.5935 106.956 15.5862 106.956 15.5788 106.956ZM15.9762 106.158C15.9369 106.158 15.9026 106.17 15.8682 106.2C15.7211 106.32 15.6598 106.652 15.6352 106.816C15.8388 106.662 16.089 106.335 16.0644 106.207C16.062 106.195 16.0571 106.168 15.9958 106.16C15.9884 106.158 15.9835 106.158 15.9762 106.158Z" fill="#407BFF"/>
<path d="M13.4595 106.885H15.2597L15.2793 102.705H13.4766L13.4595 106.885Z" fill="#7F3E3B"/>
<path d="M0.835938 105.227L2.55766 105.561L3.98999 101.462L2.26826 101.128L0.835938 105.227Z" fill="#7F3E3B"/>
<path d="M2.79079 105.32L0.811536 104.897C0.740411 104.883 0.669286 104.919 0.639855 104.986L0.0193464 106.495C-0.0444212 106.652 0.0561359 106.834 0.222913 106.866C0.917 107.001 1.25791 107.033 2.12858 107.217C2.66325 107.33 3.75711 107.622 4.4978 107.78C5.22132 107.934 5.46167 107.219 5.16981 107.087C3.86258 106.497 3.42356 105.974 3.05812 105.487C2.9919 105.401 2.89625 105.342 2.79079 105.32Z" fill="#263238"/>
<path d="M15.2403 106.676H13.2733C13.1997 106.676 13.1384 106.728 13.1237 106.799L12.8294 108.404C12.7999 108.571 12.9299 108.728 13.1016 108.726C13.8104 108.713 14.8356 108.672 15.7259 108.672C16.7682 108.672 16.8198 108.728 18.0436 108.728C18.7843 108.728 18.9609 107.979 18.6469 107.91C17.2244 107.6 16.9252 107.568 15.6793 106.816C15.5444 106.735 15.3972 106.676 15.2403 106.676Z" fill="#263238"/>
<path d="M6.06242 45.2242C4.40446 45.6764 2.44482 50.2715 2.44482 50.2715L6.25127 52.4266C6.25127 52.4266 7.14157 50.7998 8.0196 48.7849C8.93933 46.674 8.82896 44.4674 6.06242 45.2242Z" fill="#263238"/>
<path d="M16.8317 53.3358C16.8195 55.3508 16.6968 57.8572 16.3976 60.9682H6.75888C6.64115 59.5675 7.21751 53.0188 5.84651 46.4038C5.71652 45.7747 6.13346 45.1628 6.76869 45.0695C7.35241 44.9835 8.08328 44.895 8.8019 44.8606C10.0307 44.8016 11.8112 44.7623 12.8977 44.8606C13.5035 44.9147 14.0971 45.0129 14.5802 45.1088C15.3626 45.2636 16.0003 45.8386 16.2137 46.6102C16.427 47.3818 16.6527 48.5932 16.7631 50.4509C16.8121 51.2815 16.8391 52.2349 16.8317 53.3358Z" fill="#263238"/>
<path d="M12.4984 48.7088C13.9994 49.5393 17.4502 48.5884 17.4502 48.5884L17.2712 43.9072C17.2712 43.9072 15.7407 44.0325 13.6364 44.8926C11.2868 45.8509 10.8061 47.7726 12.4984 48.7088Z" fill="#263238"/>
<path d="M14.4702 44.4823C14.4702 44.4823 13.7737 44.728 13.5161 44.8042C12.5915 45.8215 12.0151 48.0331 12.0151 48.0331L13.1899 49.5886C12.746 47.2787 14.4702 44.4823 14.4702 44.4823Z" fill="#407BFF"/>
<path opacity="0.2" d="M14.4702 44.4823C14.4702 44.4823 13.7737 44.728 13.5161 44.8042C12.5915 45.8215 12.0151 48.0331 12.0151 48.0331L13.1899 49.5886C12.746 47.2787 14.4702 44.4823 14.4702 44.4823Z" fill="black"/>
<path d="M16.8338 56.0709C15.9141 56.781 14.0869 55.1297 14.0869 55.1297L14.1409 55.9677C15.816 57.3708 16.8093 56.6754 16.8093 56.6754C16.8093 56.6754 16.8657 56.4124 16.8338 56.0709Z" fill="#407BFF"/>
<path opacity="0.2" d="M16.8338 56.0709C15.9141 56.781 14.0869 55.1297 14.0869 55.1297L14.1409 55.9677C15.816 57.3708 16.8093 56.6754 16.8093 56.6754C16.8093 56.6754 16.8657 56.4124 16.8338 56.0709Z" fill="black"/>
<path d="M8.26473 44.8014C7.73251 44.853 7.44801 44.9341 7.44801 44.9341C7.44801 44.9341 6.77845 46.4035 7.17577 48.2563L8.23284 47.7796C8.2353 47.7821 7.89684 46.175 8.26473 44.8014Z" fill="#407BFF"/>
<path opacity="0.2" d="M8.26473 44.8014C7.73251 44.853 7.44801 44.9341 7.44801 44.9341C7.44801 44.9341 6.77845 46.4035 7.17577 48.2563L8.23284 47.7796C8.2353 47.7821 7.89684 46.175 8.26473 44.8014Z" fill="black"/>
<path d="M7.02135 48.0379C7.59526 47.1361 12.0222 47.2368 12.9763 47.9765C13.9328 48.7161 15.088 56.781 13.6728 57.6828C12.2577 58.5846 5.72883 59.0147 5.68223 57.1913C5.63563 55.368 7.12191 52.1981 6.94287 51.1513C6.76873 50.1021 6.23897 49.2666 7.02135 48.0379Z" fill="#407BFF"/>
<path opacity="0.4" d="M7.08301 50.854C7.08301 50.854 8.69682 51.4823 12.1084 50.719C11.4462 51.0675 7.93897 51.8603 7.08301 50.854Z" fill="#263238"/>
<path opacity="0.4" d="M9.03245 50.6178C9.05453 50.7675 8.97113 50.8902 8.84605 50.8902C8.72097 50.8902 8.60324 50.7675 8.58362 50.6178C8.56155 50.4681 8.64493 50.3454 8.77002 50.3454C8.89265 50.3454 9.01038 50.4656 9.03245 50.6178Z" fill="#263238"/>
<path opacity="0.4" d="M12.7925 57.8132C12.7876 57.8132 12.7803 57.8132 12.7754 57.8107C12.7435 57.8009 12.7239 57.7665 12.7337 57.7346C13.2536 56.0267 13.1899 53.6702 12.5424 50.7337C12.275 49.5174 12.5792 48.3354 12.741 48.0921C12.7606 48.0626 12.7974 48.0553 12.8269 48.0749C12.8538 48.0946 12.8637 48.1315 12.844 48.1609C12.6773 48.4116 12.4148 49.5813 12.6625 50.7067C13.3149 53.6653 13.3787 56.0415 12.8514 57.769C12.8416 57.796 12.8195 57.8132 12.7925 57.8132Z" fill="#263238"/>
<g opacity="0.2">
<path opacity="0.2" d="M15.2793 102.708L15.2695 104.863H13.4668L13.4766 102.708H15.2793Z" fill="black"/>
<path opacity="0.2" d="M2.26852 101.128L3.99025 101.462L3.24956 103.575L1.52783 103.241L2.26852 101.128Z" fill="black"/>
</g>
<path d="M12.9792 60.9681C12.9792 60.9681 11.4659 74.7633 10.5437 79.9335C9.53328 85.5926 4.29696 103.359 4.29696 103.359L1.06934 102.671C1.06934 102.671 4.67466 86.0497 5.16028 80.4471C5.68759 74.3653 6.76428 60.9705 6.76428 60.9705H12.9792V60.9681Z" fill="#407BFF"/>
<path d="M5.01763 102.265C5.03234 102.268 4.46825 103.447 4.46825 103.447L0.835938 102.673L1.09591 101.57L5.01763 102.265Z" fill="#263238"/>
<path opacity="0.2" d="M11.8752 65.8828C9.52804 66.3472 10.1191 75.1812 10.5802 79.7247C11.1394 76.513 11.8973 70.3329 12.4099 65.9467C12.2504 65.868 12.0739 65.8434 11.8752 65.8828Z" fill="black"/>
<path d="M16.3976 60.9681C16.3976 60.9681 17.1652 74.466 17.1824 79.9703C17.1996 85.6958 15.9267 104.445 15.9267 104.445H12.8756C12.8756 104.445 12.054 86.03 11.7008 80.4077C11.3158 74.2768 10.0649 60.9681 10.0649 60.9681H16.3976Z" fill="#407BFF"/>
<path d="M16.4635 103.226C16.4782 103.226 16.3409 104.497 16.3409 104.497H12.6276L12.4829 103.364L16.4635 103.226Z" fill="#263238"/>
<path d="M13.4154 38.432C13.435 38.5768 13.5282 38.6848 13.6239 38.675C13.7195 38.6652 13.7784 38.54 13.7588 38.3976C13.7391 38.2528 13.6459 38.1448 13.5503 38.1546C13.4546 38.162 13.3958 38.2872 13.4154 38.432Z" fill="#263238"/>
<path d="M13.5161 38.6878C13.5161 38.6878 13.9625 39.4864 14.3819 39.8501C14.1587 40.1155 13.7099 40.0491 13.7099 40.0491L13.5161 38.6878Z" fill="#630F0F"/>
<path d="M13.4742 37.4909C13.4987 37.481 13.5208 37.4614 13.5281 37.432C13.5404 37.3853 13.5134 37.3387 13.4668 37.3264C13.4496 37.3215 13.0646 37.2233 12.7212 37.5375C12.6869 37.5694 12.6844 37.6234 12.7163 37.6578C12.7482 37.6921 12.8021 37.6946 12.8365 37.6627C13.1112 37.4123 13.4202 37.4909 13.4227 37.4909C13.4398 37.4958 13.457 37.4958 13.4742 37.4909Z" fill="#263238"/>
<path d="M8.54934 38.6216C8.90988 40.3835 9.03005 41.4278 10.0552 42.2461C11.5979 43.4747 13.6753 42.4402 13.847 40.6267C14.0039 38.9951 13.3883 36.3903 11.5513 35.8645C9.74376 35.3435 8.19126 36.8597 8.54934 38.6216Z" fill="#7F3E3B"/>
<path d="M12.3407 38.8819C12.0415 39.8108 10.3762 41.5849 9.78758 41.7225C9.19895 41.8601 7.58269 40.4595 7.43553 39.7297C6.8469 39.6609 6.19942 38.4838 7.10197 38.0243C6.44222 37.6877 6.61636 35.9332 7.96039 36.0585C7.13876 35.2672 8.12471 33.9305 9.24065 34.2843C9.50798 33.6012 11.0212 33.1638 11.8895 34.2155C12.5688 33.8322 13.7583 34.6038 13.6701 35.7587C13.6112 36.5499 12.8877 37.1937 12.3604 37.3092C12.6424 37.6582 12.3407 38.8819 12.3407 38.8819Z" fill="#263238"/>
<path d="M11.4407 38.6387C11.5388 39.1007 11.8184 39.516 12.12 39.774C12.5738 40.1623 12.9368 39.8453 12.927 39.312C12.9171 38.8329 12.6694 38.0515 12.1593 37.8672C11.6565 37.6878 11.3279 38.1104 11.4407 38.6387Z" fill="#7F3E3B"/>
</svg>
