<svg width="17" height="21" viewBox="0 0 17 21" fill="none" xmlns="http://www.w3.org/2000/svg">
<path d="M14.1577 20.1543C13.0644 21.2598 11.8581 21.0874 10.7082 20.5662C9.48578 20.0345 8.36823 20.0009 7.0772 20.5662C5.46946 21.2892 4.61617 21.079 3.64789 20.1543C-1.81882 14.2909 -1.01193 5.35908 5.20117 5.02282C6.70805 5.10689 7.76306 5.89078 8.65065 5.95593C9.96992 5.67642 11.2327 4.87571 12.6448 4.98079C14.3413 5.1237 15.6101 5.82143 16.4574 7.07608C12.9675 9.26175 13.7946 14.0534 17 15.3984C16.3585 17.1533 15.5355 18.8871 14.1557 20.169L14.1577 20.1543ZM8.52961 4.95977C8.36622 2.35379 10.3935 0.21016 12.7255 0C13.0462 3.00529 10.1031 5.254 8.52961 4.95977Z" fill="black"/>
</svg>
