<svg width="21" height="21" viewBox="0 0 21 21" fill="none" xmlns="http://www.w3.org/2000/svg">
<path d="M20.9999 10.7395C21.0008 10.024 20.9391 9.30972 20.8154 8.60455H10.7124V12.6484H16.4989C16.3805 13.2942 16.1299 13.9099 15.7622 14.4583C15.3945 15.0066 14.9172 15.4764 14.3593 15.8391V18.464H17.8128C19.8349 16.6368 20.9999 13.9346 20.9999 10.7395Z" fill="#4285F4"/>
<path d="M10.7127 21C13.6037 21 16.038 20.0696 17.8131 18.4655L14.3596 15.8406C13.3984 16.4793 12.1604 16.8439 10.7127 16.8439C7.91836 16.8439 5.54661 14.9977 4.69849 12.5099H1.14087V15.215C2.03253 16.9539 3.3998 18.4158 5.09003 19.4373C6.78025 20.4589 8.72692 20.9999 10.7127 21Z" fill="#34A853"/>
<path d="M4.69837 12.51C4.25 11.2064 4.25 9.79462 4.69837 8.49098V5.78586H1.14075C0.390651 7.24874 0 8.86327 0 10.5005C0 12.1377 0.390651 13.7522 1.14075 15.2151L4.69837 12.51Z" fill="#FBBC04"/>
<path d="M10.7127 4.1568C12.2405 4.13234 13.7167 4.69808 14.8223 5.73174L17.88 2.73497C15.9411 0.950142 13.3725 -0.0297587 10.7127 0.000688875C8.72692 0.000777575 6.78026 0.541792 5.09003 1.56333C3.3998 2.58487 2.03253 4.04673 1.14087 5.7857L4.6985 8.49082C5.54661 6.00299 7.91836 4.1568 10.7127 4.1568Z" fill="#EA4335"/>
</svg>
