<svg width="11" height="20" viewBox="0 0 11 20" fill="none" xmlns="http://www.w3.org/2000/svg">
<path d="M10.9234 8.51685C10.8083 8.24806 10.5395 8.09445 10.2323 8.09445H7.73622L9.08018 0.913648C9.15693 0.568116 8.96501 0.222448 8.65779 0.0688137C8.35056 -0.0848035 7.96659 0.030376 7.73622 0.299173L0.171443 9.86077C-0.0206112 10.0911 -0.0589149 10.3984 0.0947018 10.6672C0.209881 10.936 0.478667 11.0896 0.7859 11.0896H3.28193L1.93797 18.2704C1.86122 18.6159 2.05314 18.9616 2.36036 19.1152C2.47554 19.1536 2.55242 19.1919 2.66759 19.1919C2.89795 19.1919 3.12843 19.0768 3.28206 18.8847L10.8084 9.32312C11.0002 9.09276 11.0387 8.78552 10.9235 8.51672L10.9234 8.51685ZM4.01147 15.5056L4.93303 10.4752C4.97147 10.2449 4.93303 10.0144 4.77941 9.86078C4.6258 9.66873 4.43388 9.59199 4.20338 9.59199H2.36012L6.9681 3.71679L6.04654 8.74719C6.0081 8.97755 6.04654 9.20802 6.20016 9.36166C6.35378 9.51529 6.54569 9.63045 6.77619 9.63045H8.61945L4.01147 15.5056Z" fill="#2C2D35"/>
</svg>
