<svg width="80" height="82" viewBox="0 0 80 82" fill="none" xmlns="http://www.w3.org/2000/svg">
<path d="M49.4494 28.9653C49.6904 18.1221 41.2568 9.20671 30.4137 8.72386C19.5705 8.48279 10.6551 16.9164 10.1722 27.7596C9.93115 38.6027 18.3648 47.5181 29.2079 48.001C40.0511 48.2421 48.9665 39.8084 49.4494 28.9653ZM49.9315 47.0381L51.6185 48.7251L56.6788 48.9662L77.8831 71.6162C82.9434 76.9175 74.7508 84.6285 69.6905 79.0861L48.4862 56.4361L48.7273 51.3758L47.0403 49.6888C41.98 53.7854 35.715 55.9538 28.9674 55.7128C13.786 55.2306 1.9803 42.4599 2.46172 27.5199C2.94387 12.3385 15.7146 0.532787 30.6546 1.01422C45.836 1.49636 57.6417 14.2671 57.1603 29.2071C56.9192 35.9542 54.2686 42.2194 49.9314 47.0385L49.9315 47.0381Z" fill="#B9C2D1"/>
<path d="M47.0019 28.9511C47.2429 18.108 38.8093 9.19255 27.9661 8.7097C17.123 8.46863 8.20757 16.9023 7.72471 27.7454C7.48364 38.5886 15.9173 47.504 26.7604 47.9868C37.6036 48.2279 46.519 39.7943 47.0019 28.9511ZM47.484 47.024L49.171 48.711L54.2313 48.9521L75.4356 71.6021C80.4958 76.9033 72.3033 84.6143 67.243 79.0719L46.0387 56.4219L46.2798 51.3616L44.5928 49.6746C39.5325 53.7712 33.2675 55.9396 26.5199 55.6986C11.3385 55.2165 -0.467213 42.4458 0.014215 27.5058C0.496358 12.3243 13.2671 0.518626 28.2071 1.00005C43.3885 1.4822 55.1942 14.2529 54.7128 29.1929C54.4717 35.9401 51.8211 42.2052 47.4839 47.0243L47.484 47.024Z" fill="#D7DEE8"/>
</svg>
