<svg width="16" height="18" viewBox="0 0 16 18" fill="none" xmlns="http://www.w3.org/2000/svg">
<path d="M0.188875 12.9109C0.0726337 13.081 0.00762002 13.2771 0.000629947 13.4786C-0.00636013 13.6801 0.0449301 13.8796 0.149139 14.0564C0.253349 14.2331 0.406651 14.3806 0.593021 14.4833C0.779391 14.586 0.991987 14.6403 1.20859 14.6404H14.5374C14.7543 14.641 14.9674 14.5872 15.1544 14.4847C15.3413 14.3823 15.4952 14.2349 15.5999 14.058C15.7046 13.8812 15.7562 13.6813 15.7494 13.4795C15.7426 13.2777 15.6775 13.0813 15.5611 12.9109H0.188875ZM13.6396 11.8737L14.7355 13.4751C14.7473 13.4923 14.7497 13.5055 14.75 13.5133C14.7502 13.521 14.7487 13.5328 14.7393 13.5486C14.7295 13.5652 14.7095 13.5882 14.6737 13.6078C14.6376 13.6276 14.5912 13.6405 14.5401 13.6404H14.5374H1.20901C1.15795 13.6404 1.11169 13.6273 1.07577 13.6075C1.04019 13.5879 1.0203 13.565 1.01056 13.5485C1.00126 13.5327 0.999762 13.5209 1.00003 13.5132C1.0003 13.5055 1.00274 13.4923 1.01454 13.4751L1.01519 13.4741L2.09939 11.8834L2.09952 11.8832C2.305 11.5816 2.4297 11.2309 2.4559 10.863C2.45593 10.8625 2.45596 10.8621 2.456 10.8616L2.85888 5.33404H2.85888L2.85908 5.33121C2.94277 4.13633 3.53116 3.0026 4.52363 2.18508C5.51625 1.36744 6.82847 0.93803 8.17615 1.00724C9.43693 1.09807 10.6071 1.61186 11.4725 2.43636C12.3383 3.26112 12.8389 4.33769 12.9021 5.46012L12.902 5.46013L12.903 5.4742L13.2819 10.8503L13.2819 10.8503C13.3079 11.2187 13.4327 11.57 13.6384 11.872L13.6396 11.8737ZM7.14463 16.8205C7.11229 16.8032 7.08094 16.785 7.05062 16.7659H8.69938C8.66905 16.785 8.63771 16.8032 8.60537 16.8205C8.38703 16.9366 8.13503 17 7.875 17C7.61497 17 7.36296 16.9366 7.14463 16.8205Z" stroke="#546CFF" stroke-width="2"/>
</svg>
