<svg width="15" height="14" viewBox="0 0 15 14" fill="none" xmlns="http://www.w3.org/2000/svg">
<path d="M7.33754 0.25C6.17725 0.251808 5.03739 0.556699 4.03103 1.13446C3.02464 1.71224 2.18673 2.54281 1.60003 3.54399V2.27499C1.60003 2.03384 1.47132 1.811 1.26249 1.69043C1.05367 1.56986 0.796371 1.56986 0.587536 1.69043C0.378708 1.811 0.25 2.03384 0.25 2.27499V4.97493C0.25 5.15393 0.32119 5.32569 0.447752 5.45225C0.574313 5.57881 0.745974 5.64989 0.92507 5.64989H3.96255C4.2037 5.64989 4.42653 5.52129 4.54711 5.31247C4.66768 5.10364 4.66768 4.84623 4.54711 4.6374C4.42653 4.42856 4.2037 4.29997 3.96255 4.29997H2.72054C3.18261 3.48185 3.85326 2.80079 4.66438 2.32651C5.47551 1.85214 6.39783 1.60151 7.33742 1.59991C8.66417 1.59811 9.94526 2.0847 10.9361 2.96701C11.927 3.84933 12.5584 5.06557 12.7098 6.38375C12.8612 7.70178 12.5221 9.02956 11.757 10.1135C10.992 11.1975 9.85477 11.9619 8.5619 12.261C7.26927 12.56 5.91192 12.3727 4.74856 11.7347C3.58521 11.0968 2.69748 10.0529 2.25462 8.80225C2.17507 8.57432 1.97991 8.40619 1.74285 8.3612C1.50566 8.31612 1.26249 8.40109 1.10495 8.58393C0.94731 8.76676 0.899283 9.01988 0.978949 9.24769C1.53119 10.8116 2.63996 12.1175 4.09367 12.9161C5.54744 13.7147 7.24426 13.9501 8.86049 13.5774C10.4766 13.2047 11.8991 12.2501 12.8561 10.8955C13.8132 9.54097 14.2382 7.88146 14.05 6.2337C13.8616 4.58591 13.0732 3.06488 11.8351 1.96126C10.5971 0.857704 8.99596 0.248502 7.33735 0.250093L7.33754 0.25Z" fill="#2C2D35"/>
<path d="M9.86906 9.69988C9.72306 9.69988 9.58091 9.65253 9.46406 9.56495L6.7641 7.53997C6.59415 7.4125 6.49414 7.21238 6.49414 6.99993V4.29999C6.49414 4.05884 6.62274 3.836 6.83156 3.71543C7.04039 3.59486 7.29781 3.59486 7.50664 3.71543C7.71547 3.836 7.84406 4.05884 7.84406 4.29999V6.66251L10.2741 8.485V8.48489C10.4173 8.59235 10.512 8.75225 10.5374 8.92943C10.5627 9.10673 10.5166 9.28675 10.4091 9.42992C10.2816 9.59987 10.0815 9.69988 9.86906 9.69988Z" fill="#2C2D35"/>
</svg>
