<svg width="26" height="21" viewBox="0 0 26 21" fill="none" xmlns="http://www.w3.org/2000/svg">
<path d="M23.269 5.27986C23.2847 5.50324 23.2847 5.72662 23.2847 5.95206C23.2847 12.8213 17.9589 20.7437 8.22042 20.7437V20.7396C5.34365 20.7437 2.52663 19.9346 0.104858 18.409C0.523165 18.4584 0.943568 18.4831 1.36502 18.4841C3.74905 18.4862 6.06494 17.7007 7.9405 16.2544C5.67494 16.2122 3.68825 14.7618 2.99421 12.6443C3.78784 12.7946 4.60558 12.7637 5.38454 12.5547C2.91454 12.0647 1.13752 9.93383 1.13752 7.45912C1.13752 7.43647 1.13752 7.41486 1.13752 7.39324C1.87349 7.79574 2.69752 8.01912 3.54042 8.04383C1.21405 6.51721 0.496955 3.47838 1.90179 1.1025C4.58986 4.3503 8.55591 6.32471 12.8134 6.53368C12.3867 4.72809 12.9696 2.83603 14.3451 1.56677C16.4775 -0.401468 19.8313 -0.300586 21.8358 1.79221C23.0216 1.56265 24.158 1.13544 25.198 0.53015C24.8028 1.73353 23.9756 2.75574 22.8706 3.4053C23.92 3.28383 24.9453 3.00794 25.9109 2.58691C25.2001 3.6328 24.3048 4.54383 23.269 5.27986Z" fill="#1D9BF0"/>
</svg>
